<svg height="512pt" viewBox="0 0 512.11062 512" width="512pt" xmlns="http://www.w3.org/2000/svg"><path d="m51.261719 237.160156v121.300782c.070312 16.0625 3.742187 31.90625 10.742187 46.359374 30.726563 64.15625 120.722656 107.238282 223.921875 107.238282 109.101563 0 191.191407-39.039063 225.28125-107.109375 1.480469-2.957031 1.121094-6.503907-.925781-9.101563s-5.410156-3.777344-8.632812-3.03125c-40.402344 9.335938-58.214844-12.800781-64-22.75-7.351563-13.191406-11.121094-28.078125-10.921876-43.179687v-71.800781l55.46875-55.464844c13.40625-13.429688 17.410157-33.617188 10.136719-51.144532-7.273437-17.53125-24.386719-28.957031-43.367187-28.949218-11.433594.042968-22.445313 4.296875-30.941406 11.945312-23.761719-76.566406-93.738282-129.429687-173.882813-131.363281-80.148437-1.933594-152.585937 47.496094-180.011719 122.832031-20.664062-8.207031-44.25-.757812-56.449218 17.832032-12.199219 18.585937-9.648438 43.191406 6.101562 58.882812zm185.171875-220.03125h2.6875c77.71875-.003906 145.582031 52.59375 164.96875 127.851563l-51.664063 51.664062c-3.234375 3.347657-3.1875 8.667969.105469 11.960938s8.613281 3.335937 11.960938.101562l63.359374-63.359375c11.824219-11.273437 30.417969-11.273437 42.242188 0 11.640625 11.675782 11.640625 30.566406 0 42.242188l-57.875 57.898437-5.460938 5.460938c-2.027343 2.03125-2.894531 4.949219-2.3125 7.761719.585938 2.8125 2.542969 5.140624 5.214844 6.199218v61.976563c-.207031 18.105469 4.34375 35.945312 13.191406 51.738281 13.300782 22.617188 38.40625 35.582031 64.546876 33.339844-35.199219 53.007812-107.425782 83.027344-201.472657 83.027344-95.257812 0-181.015625-40.105469-208.527343-97.507813-5.902344-12.167969-9.003907-25.5-9.070313-39.023437v-166.648438c-.011719-18.445312 2.902344-36.773438 8.632813-54.304688 21.808593-70.195312 85.988281-118.640624 159.472656-120.378906zm-210.542969 128.238282c8.730469-8.457032 21.664063-10.902344 32.878906-6.214844-4.941406 17.121094-7.46875 34.84375-7.507812 52.660156v21.179688l-25.371094-25.421876c-5.609375-5.589843-8.761719-13.183593-8.761719-21.101562s3.152344-15.511719 8.761719-21.101562zm0 0"/><path d="m136.59375 238.992188c19.457031 0 34.132812-23.839844 34.132812-55.464844s-14.675781-55.46875-34.132812-55.46875-34.132812 23.84375-34.132812 55.46875 14.675781 55.464844 34.132812 55.464844zm0-93.863282c6.953125 0 17.066406 14.957032 17.066406 38.398438s-10.113281 38.398437-17.066406 38.398437-17.066406-14.957031-17.066406-38.398437 10.113281-38.398438 17.066406-38.398438zm0 0"/><path d="m159.921875 380.425781c.164063 1.105469.542969 2.167969 1.121094 3.121094 8.675781 23.398437 24.386719 26.113281 43.816406 26.113281s35.140625-2.714844 43.820313-26.113281c.578124-.953125.957031-2.015625 1.117187-3.121094 4.851563-18.289062 6.960937-37.191406 6.261719-56.097656 0-47.847656-22.492188-85.335937-51.199219-85.335937s-51.199219 37.488281-51.199219 85.335937c-.699218 18.90625 1.414063 37.808594 6.261719 56.097656zm44.9375 12.167969c-11.621094 0-21.007813 0-26.972656-12.347656 6.453125-8.359375 16.414062-13.253906 26.972656-13.253906s20.523437 4.894531 26.976563 13.253906c-5.964844 12.347656-15.351563 12.347656-26.976563 12.347656zm0-136.535156c16.144531 0 34.132813 28.042968 34.132813 68.269531.167968 12.339844-.53125 24.679687-2.097657 36.921875-18.6875-15.097656-45.382812-15.097656-64.070312 0-1.5625-12.242188-2.265625-24.582031-2.097657-36.921875 0-40.226563 17.988282-68.269531 34.132813-68.269531zm0 0"/><path d="m273.128906 238.992188c19.453125 0 34.132813-23.839844 34.132813-55.464844s-14.679688-55.46875-34.132813-55.46875c-19.457031 0-34.136718 23.84375-34.136718 55.46875s14.679687 55.464844 34.136718 55.464844zm0-93.863282c6.953125 0 17.066406 14.957032 17.066406 38.398438s-10.113281 38.398437-17.066406 38.398437c-6.957031 0-17.070312-14.957031-17.070312-38.398437s10.113281-38.398438 17.070312-38.398438zm0 0"/></svg>